# xmcd
#
# Track frame offsets: 
#        150
#        21584
#        36105
#        54497
#        71287
#        107989
#        126149
#        140156
#        155144
#        172998
#        190504
#        206330
#        223493
#
# Disc length: 3127 seconds
#
# Revision: 0
# Processed by: cddbd v1.5.2PL0 Copyright (c) Steve Scherf et al.
# Submitted via: ExactAudioCopyFreeDBPlugin 1.0
#
DISCID=c50c350d
DTITLE=Moonshine Bandits - Throwdown The Greatest Hits
DYEAR=2018
DGENRE=Country
TTITLE0=We All Country
TTITLE1=I'm A Hellrazor
TTITLE2=Throwdown
TTITLE3=Dad's Pontoon
TTITLE4=Outback (Extended Remix)
TTITLE5=Country Fried (Remix)
TTITLE6=California Country
TTITLE7=Dead Man's Hand
TTITLE8=51Fifty
TTITLE9=Full Throttle
TTITLE10=My Way
TTITLE11=Lady Luck
TTITLE12=Not Enough
EXTD=
EXTT0=
EXTT1=
EXTT2=
EXTT3=
EXTT4=
EXTT5=
EXTT6=
EXTT7=
EXTT8=
EXTT9=
EXTT10=
EXTT11=
EXTT12=
PLAYORDER=
